<?xml version="1.0" encoding="utf-8"?>
<!-- Generator: Adobe Illustrator 19.2.0, SVG Export Plug-In . SVG Version: 6.00 Build 0)  -->
<svg version="1.1" id="Layer_1" xmlns="http://www.w3.org/2000/svg" xmlns:xlink="http://www.w3.org/1999/xlink" x="0px" y="0px"
	 viewBox="0 0 80 60" style="enable-background:new 0 0 80 60;" xml:space="preserve">
<style type="text/css">
	.st0{fill:#2ECC71;}
	.st1{fill:#2ECC71;stroke:#2ECC71;stroke-miterlimit:10;}
	.st2{fill:#FFFFFF;stroke:#FFFFFF;stroke-miterlimit:10;}
	.st3{fill:#FFFFFF;fill-opacity:0;stroke:#FFFFFF;stroke-width:0.5;}
</style>
<g id="Layer_1_1_">
	<path class="st0" d="M36.5,12.5l-4.6-5.8l-0.4-0.5H10v47.6h60V12.5H36.5z M68,14.3v4.5H41.5L38,14.3H68z M12,52V8h18.5l5,6.3h0
		l4.7,5.9c0.2,0.2,0.5,0.4,0.8,0.4v0h27V52H12z"/>
	<path class="st1" d="M12,8h18.5l9.7,12.2c0,0,0.5,0.4,0.8,0.4c1.3,0,27,0,27,0V52H12V8z"/>
	<g>
		<g>
			<path class="st2" d="M40,28c-3.4,0-5.8,2.6-6.2,5.4c-0.2,1.9,0.3,3.7,1.5,5c1.1,1.2,1.6,2.7,1.6,4.3l0,2.5c0,1,0.8,1.9,1.8,1.9
				h2.4c1,0,1.8-0.8,1.8-1.9l0-2.5c0-1.7,0.5-3.2,1.5-4.3c1.1-1.2,1.7-2.7,1.7-4.2C46.3,30.7,43.4,28,40,28z M42.1,45.2
				c0,0.5-0.4,0.9-0.9,0.9h-2.4c-0.5,0-0.9-0.4-0.9-0.9v-1.1h4.1L42.1,45.2L42.1,45.2z M43.9,37.8c-1.2,1.3-1.8,3-1.8,4.9v0.4H38
				v-0.4c0-1.8-0.7-3.6-1.9-5c-1.1-1.2-1.5-2.7-1.3-4.2c0.3-2.3,2.4-4.5,5.2-4.5c2.9,0,5.3,2.4,5.3,5.3
				C45.3,35.5,44.8,36.8,43.9,37.8z"/>
			<path class="st3" d="M40,28c-3.4,0-5.8,2.6-6.2,5.4c-0.2,1.9,0.3,3.7,1.5,5c1.1,1.2,1.6,2.7,1.6,4.3l0,2.5c0,1,0.8,1.9,1.8,1.9
				h2.4c1,0,1.8-0.8,1.8-1.9l0-2.5c0-1.7,0.5-3.2,1.5-4.3c1.1-1.2,1.7-2.7,1.7-4.2C46.3,30.7,43.4,28,40,28z M42.1,45.2
				c0,0.5-0.4,0.9-0.9,0.9h-2.4c-0.5,0-0.9-0.4-0.9-0.9v-1.1h4.1L42.1,45.2L42.1,45.2z M43.9,37.8c-1.2,1.3-1.8,3-1.8,4.9v0.4H38
				v-0.4c0-1.8-0.7-3.6-1.9-5c-1.1-1.2-1.5-2.7-1.3-4.2c0.3-2.3,2.4-4.5,5.2-4.5c2.9,0,5.3,2.4,5.3,5.3
				C45.3,35.5,44.8,36.8,43.9,37.8z"/>
		</g>
		<g>
			<path class="st2" d="M39.5,24.1h1v2.3h-1V24.1z"/>
			<path class="st3" d="M39.5,24.1h1v2.3h-1V24.1z"/>
		</g>
		<g>
			<path class="st2" d="M45.8,28.7l0.7,0.7l1.7-1.6L47.5,27L45.8,28.7z"/>
			<path class="st3" d="M45.8,28.7l0.7,0.7l1.7-1.6L47.5,27L45.8,28.7z"/>
		</g>
		<g>
			<path class="st2" d="M48.7,34.7h2.4v1h-2.4V34.7z"/>
			<path class="st3" d="M48.7,34.7h2.4v1h-2.4V34.7z"/>
		</g>
		<g>
			<path class="st2" d="M28.9,34.7h2.4v1h-2.4V34.7z"/>
			<path class="st3" d="M28.9,34.7h2.4v1h-2.4V34.7z"/>
		</g>
		<g>
			<path class="st2" d="M32.5,27l-0.7,0.7l1.6,1.6l0.7-0.7L32.5,27z"/>
			<path class="st3" d="M32.5,27l-0.7,0.7l1.6,1.6l0.7-0.7L32.5,27z"/>
		</g>
	</g>
</g>
</svg>
