<?xml version="1.0" encoding="UTF-8"?>
<!DOCTYPE svg PUBLIC "-//W3C//DTD SVG 1.1//EN" "http://www.w3.org/Graphics/SVG/1.1/DTD/svg11.dtd">
<svg version="1.1" xmlns="http://www.w3.org/2000/svg" xmlns:xlink="http://www.w3.org/1999/xlink" x="0" y="0" width="1000" height="250" viewBox="0, 0, 1000, 250">
  <g id="Text">
    <text transform="matrix(1, 0, 0, 1, 460.891, 125)" id="filescollector">
      <tspan x="-367.053" y="48.014" font-family="Futura-MediumItalic" font-size="130" fill="#FFFFFF">filescollector</tspan>
    </text>
    <path d="M925.141,54.171 L878.695,109.413 C877.47,110.87 873.839,109.835 870.586,107.1 L870.586,107.1 C867.333,104.364 865.689,100.966 866.915,99.508 L913.36,44.266 C914.586,42.808 918.216,43.844 921.47,46.579 L921.47,46.579 C924.723,49.314 926.366,52.713 925.141,54.171 z" fill="#E74C3C"/>
    <path d="M928.739,90.278 L857.906,76.438 C856.037,76.073 855.182,72.395 855.997,68.224 L855.997,68.224 C856.812,64.053 858.988,60.967 860.857,61.333 L931.69,75.172 C933.559,75.538 934.414,79.215 933.599,83.386 L933.599,83.386 C932.784,87.558 930.608,90.643 928.739,90.278 z" fill="#E74C3C"/>
    <path d="M897.408,113.711 L879.726,43.739 C879.259,41.892 882.221,39.551 886.342,38.51 L886.342,38.51 C890.462,37.469 894.181,38.121 894.647,39.968 L912.33,109.94 C912.797,111.786 909.835,114.127 905.714,115.169 L905.714,115.169 C901.594,116.21 897.875,115.557 897.408,113.711 z" fill="#E74C3C"/>
  </g>
</svg>
