<svg id="Layer_1" data-name="Layer 1" xmlns="http://www.w3.org/2000/svg" viewBox="0 0 126.97 102.84"><defs><style>.cls-1{fill:#232323;}.cls-2{fill:#565656;}</style></defs><title>logo</title><path class="cls-1" d="M19.36,82.15H12.79v-1Q6.11,82.33,5.3,82.33a5.17,5.17,0,0,1-3.89-1.46,5.45,5.45,0,0,1-1.41-4v-18Q0,55.36,2.54,54a11.74,11.74,0,0,1,5.59-1q0.83,0,2.42.06t2.25,0.06v-16h6.57V82.15Zm-6.57-5.68V58.56H8.73a1.94,1.94,0,0,0-2.19,2.19V74.66A1.86,1.86,0,0,0,8.62,76.8Q9.11,76.8,12.79,76.48Z" transform="translate(0 -0.63)"/><path class="cls-1" d="M43.45,82.15H36.88v-1q-6.69,1.18-7.49,1.18a5.17,5.17,0,0,1-3.89-1.46,5.45,5.45,0,0,1-1.41-4v-18q0-3.54,2.54-4.93a11.74,11.74,0,0,1,5.59-1q0.83,0,2.42.06t2.25,0.06v-16h6.57V82.15Zm-6.57-5.68V58.56H32.82a1.94,1.94,0,0,0-2.19,2.19V74.66A1.86,1.86,0,0,0,32.7,76.8Q33.19,76.8,36.88,76.48Z" transform="translate(0 -0.63)"/><path class="cls-1" d="M67.42,78.55q0,3.6-3.66,3.6H52q-3.72,0-3.72-3.6V56.65q0-3.6,3.72-3.6H63.77q3.66,0,3.66,3.6v21.9ZM61,76.68V58.56H54.72V76.68H61Z" transform="translate(0 -0.63)"/><path class="cls-1" d="M91,78.55q0,3.6-3.66,3.6H75.9q-3.72,0-3.72-3.6V56.65q0-3.6,3.72-3.6H87.33q3.66,0,3.66,3.6v6.92H84.57v-5H78.66V76.68h5.91V71.12H91v7.43Z" transform="translate(0 -0.63)"/><path class="cls-1" d="M114,78.55q0,3.6-3.66,3.6H99.26q-3.66,0-3.66-3.6V72.3h6.31v4.9h5.79V72.59l-10.11-6a3.57,3.57,0,0,1-2-3.17v-6.8q0-3.6,3.72-3.6h11q3.66,0,3.66,3.6V62.5h-6.25V58h-5.79v4.21L112,68.12a3.56,3.56,0,0,1,2,3.23v7.2Z" transform="translate(0 -0.63)"/><polygon class="cls-2" points="101.92 21.32 95.02 21.32 36.93 21.32 36.93 31.66 43.82 31.66 43.82 28.21 95.02 28.21 101.92 28.21 120.07 28.21 120.07 95.94 43.82 95.94 43.82 86.82 36.93 86.82 36.93 102.84 126.97 102.84 126.97 21.32 101.92 21.32"/><polygon class="cls-2" points="96.02 16.77 102.92 16.77 102.92 0 12.88 0 12.88 31.08 19.77 31.08 19.77 6.89 96.02 6.89 96.02 16.77"/></svg>