<svg id="Layer_1" data-name="Layer 1" xmlns="http://www.w3.org/2000/svg" viewBox="0 0 126.98 102.84"><defs><style>.cls-1{fill:#fff;}</style></defs><title>logo</title><path class="cls-1" d="M19.36,81.52H12.79v-1Q6.11,81.7,5.3,81.7a5.17,5.17,0,0,1-3.89-1.46,5.45,5.45,0,0,1-1.41-4v-18q0-3.51,2.54-4.87a11.74,11.74,0,0,1,5.59-1q0.83,0,2.42.06t2.25,0.06v-16h6.57v45h0Zm-6.57-5.68V57.93H8.73a1.94,1.94,0,0,0-2.19,2.19V74a1.86,1.86,0,0,0,2.08,2.14q0.49,0,4.17-.32h0Z" transform="translate(0.01)"/><path class="cls-1" d="M43.45,81.52H36.88v-1q-6.69,1.18-7.49,1.18a5.17,5.17,0,0,1-3.89-1.46,5.45,5.45,0,0,1-1.41-4v-18q0-3.54,2.54-4.93a11.74,11.74,0,0,1,5.59-1q0.83,0,2.42.06t2.25,0.06v-16h6.57V81.52h0Zm-6.57-5.68V57.93H32.82a1.94,1.94,0,0,0-2.19,2.19V74a1.86,1.86,0,0,0,2.07,2.14q0.49,0,4.18-.32h0Z" transform="translate(0.01)"/><path class="cls-1" d="M67.42,77.92q0,3.6-3.66,3.6H52q-3.72,0-3.72-3.6V56q0-3.6,3.72-3.6H63.77q3.66,0,3.66,3.6v21.9h0ZM61,76.05V57.93H54.72V76.05H61Z" transform="translate(0.01)"/><path class="cls-1" d="M91,77.92q0,3.6-3.66,3.6H75.9q-3.72,0-3.72-3.6V56q0-3.6,3.72-3.6H87.33Q91,52.42,91,56v6.92H84.57v-5H78.66V76.05h5.91V70.49H91v7.43Z" transform="translate(0.01)"/><path class="cls-1" d="M114,77.92q0,3.6-3.66,3.6H99.26q-3.66,0-3.66-3.6V71.67h6.31v4.9h5.79V72L97.59,66a3.57,3.57,0,0,1-2-3.17V56q0-3.6,3.72-3.6h11q3.66,0,3.66,3.6v5.88h-6.25v-4.5h-5.79v4.21L112,67.49a3.56,3.56,0,0,1,2,3.23v7.2Z" transform="translate(0.01)"/><polygon class="cls-1" points="101.93 21.32 95.03 21.32 36.94 21.32 36.94 31.66 43.83 31.66 43.83 28.21 95.03 28.21 101.93 28.21 120.08 28.21 120.08 95.94 43.83 95.94 43.83 86.82 36.94 86.82 36.94 102.84 126.98 102.84 126.98 21.32 101.93 21.32"/><polygon class="cls-1" points="96.03 16.77 102.93 16.77 102.93 0 12.89 0 12.89 31.08 19.78 31.08 19.78 6.89 96.03 6.89 96.03 16.77"/></svg>