<?xml version="1.0" encoding="utf-8"?>
<!-- Generator: Adobe Illustrator 19.2.0, SVG Export Plug-In . SVG Version: 6.00 Build 0)  -->
<svg version="1.1" id="Capa_1" xmlns="http://www.w3.org/2000/svg" xmlns:xlink="http://www.w3.org/1999/xlink" x="0px" y="0px"
	 viewBox="0 0 58.2 58.2" style="enable-background:new 0 0 58.2 58.2;" xml:space="preserve">
<style type="text/css">
	.st0{fill:#FFFFFF;}
</style>
<g>
	<path class="st0" d="M45.9,19.3l0.8-0.5c-1.6-2.5-3.8-4.7-6.3-6.3l-0.5,0.8c-0.2,0.3-0.5,0.5-0.9,0.5c-0.2,0-0.3,0-0.5-0.1
		c-0.5-0.3-0.6-0.9-0.4-1.4l0.5-0.8c-2.6-1.3-5.5-2.2-8.6-2.3v0.9c0,0.6-0.4,1-1,1s-1-0.4-1-1V9.2l-2.2,0.4
		c-1.8,0.3-3.6,0.8-5.4,1.5l-1,0.4l0.5,0.8c0.3,0.5,0.1,1.1-0.4,1.4c-0.2,0.1-0.3,0.1-0.5,0.1c-0.3,0-0.7-0.2-0.9-0.5l-0.5-0.8
		c-2.5,1.6-4.7,3.8-6.3,6.3l0.8,0.5c0.5,0.3,0.6,0.9,0.4,1.4c-0.2,0.3-0.5,0.5-0.9,0.5c-0.2,0-0.3,0-0.5-0.1l-0.8-0.5
		c-1.3,2.6-2.2,5.5-2.3,8.6h0.9c0.6,0,1,0.4,1,1s-0.4,1-1,1H8.1c0.1,3.1,1,6,2.3,8.6l0.8-0.5c0.5-0.3,1.1-0.1,1.4,0.4
		c0.3,0.5,0.1,1.1-0.4,1.4l-0.8,0.5c1.6,2.5,3.8,4.7,6.3,6.3l0.5-0.8c0.3-0.5,0.9-0.6,1.4-0.4c0.5,0.3,0.6,0.9,0.4,1.4l-0.5,0.8
		c2.6,1.3,5.5,2.2,8.6,2.3v-0.9c0-0.6,0.4-1,1-1s1,0.4,1,1v0.9c3.1-0.1,6-1,8.6-2.3L38.2,48c-0.3-0.5-0.1-1.1,0.4-1.4
		c0.5-0.3,1.1-0.1,1.4,0.4l0.5,0.8c2.5-1.6,4.7-3.8,6.3-6.3L45.9,41c-0.5-0.3-0.6-0.9-0.4-1.4c0.3-0.5,0.9-0.6,1.4-0.4l0.8,0.5
		c1.3-2.6,2.2-5.5,2.3-8.6h-0.9c-0.6,0-1-0.4-1-1s0.4-1,1-1H50c-0.1-3.1-1-6-2.3-8.6L46.9,21c-0.2,0.1-0.3,0.1-0.5,0.1
		c-0.3,0-0.7-0.2-0.9-0.5C45.3,20.2,45.4,19.6,45.9,19.3z M40.1,31.2h-7.1c-0.4,1.7-2,3-3.9,3c-2.2,0-4-1.8-4-4c0-1.9,1.3-3.4,3-3.9
		V16.2c0-0.6,0.4-1,1-1s1,0.4,1,1v10.1c1.4,0.4,2.5,1.5,2.9,2.9h7.1c0.6,0,1,0.4,1,1S40.6,31.2,40.1,31.2z"/>
	<circle class="st0" cx="29.1" cy="30.2" r="2"/>
	<path class="st0" d="M50.2,9.8l4.1,4.1c0.2,0.2,0.4,0.3,0.7,0.3s0.5-0.1,0.7-0.3c3.2-3.2,3.2-8.3,0-11.5C54.2,0.8,52.1,0,50,0
		s-4.2,0.8-5.7,2.4c-0.2,0.2-0.3,0.4-0.3,0.7s0.1,0.5,0.3,0.7l4.6,4.6l-1.7,1.7c-4.8-4.3-11.1-6.9-18-6.9s-13.2,2.6-18,6.9L9.4,8.4
		l4.6-4.6c0.2-0.2,0.3-0.4,0.3-0.7s-0.1-0.5-0.3-0.7C12.4,0.8,10.4,0,8.2,0C6,0,4,0.8,2.5,2.4c-3.2,3.2-3.2,8.3,0,11.5
		c0.2,0.2,0.4,0.3,0.7,0.3s0.5-0.1,0.7-0.3L8,9.8l1.7,1.7C5,16.3,2.1,22.9,2.1,30.2c0,9.9,5.4,18.6,13.3,23.3l-3,3
		c-0.4,0.4-0.4,1,0,1.4c0.2,0.2,0.5,0.3,0.7,0.3s0.5-0.1,0.7-0.3l3.5-3.5c3.6,1.8,7.6,2.7,11.8,2.7s8.3-1,11.8-2.7l3.5,3.5
		c0.2,0.2,0.5,0.3,0.7,0.3s0.5-0.1,0.7-0.3c0.4-0.4,0.4-1,0-1.4l-3-3c8-4.7,13.3-13.4,13.3-23.3c0-7.3-2.9-13.9-7.6-18.7L50.2,9.8z
		 M49,18.6C49,18.6,49,18.6,49,18.6C49,18.7,49,18.7,49,18.6c2,3.5,3.1,7.4,3.1,11.5S51,38.2,49,41.6c0,0,0,0,0,0.1c0,0,0,0-0.1,0.1
		c-2,3.4-4.9,6.3-8.3,8.3c0,0,0,0,0,0c0,0-0.1,0-0.1,0c-3.4,1.9-7.3,3-11.4,3s-8.1-1.1-11.4-3c0,0-0.1,0-0.1,0c0,0,0,0,0,0
		c-3.4-2-6.3-4.9-8.3-8.3c0,0,0,0-0.1-0.1c0,0,0,0,0-0.1c-1.9-3.4-3.1-7.3-3.1-11.4s1.1-8.1,3.1-11.4c0,0,0,0,0-0.1c0,0,0,0,0,0
		c2-3.4,4.9-6.3,8.3-8.3c0,0,0,0,0,0c0,0,0,0,0.1,0c3.4-1.9,7.3-3.1,11.4-3.1s8.1,1.1,11.4,3.1c0,0,0,0,0.1,0c0,0,0,0,0,0
		C44.1,12.3,46.9,15.2,49,18.6z"/>
</g>
</svg>
