<?xml version="1.0" encoding="utf-8"?>
<!-- Generator: Adobe Illustrator 19.2.0, SVG Export Plug-In . SVG Version: 6.00 Build 0)  -->
<svg version="1.1" id="Capa_1" xmlns="http://www.w3.org/2000/svg" xmlns:xlink="http://www.w3.org/1999/xlink" x="0px" y="0px"
	 viewBox="0 0 60 60" style="enable-background:new 0 0 60 60;" xml:space="preserve">
<style type="text/css">
	.st0{fill:#FFFFFF;}
</style>
<g>
	<path class="st0" d="M58.7,8H1.3C0.6,8,0,8.6,0,9.3V17h60V9.3C60,8.6,59.4,8,58.7,8z"/>
	<path class="st0" d="M1.1,7h57.6c0.4,0,0.8-0.3,1-0.6c0.2-0.4,0.1-0.9-0.2-1.2l-6-5.2H6.5L0.3,5.2C0,5.5-0.1,6,0.1,6.4
		C0.3,6.7,0.7,7,1.1,7z"/>
	<path class="st0" d="M17,50h26V40H17V50z M32.7,47.7C32.5,47.9,32.3,48,32,48c-0.3,0-0.5-0.1-0.7-0.3C31.1,47.5,31,47.3,31,47
		c0-0.3,0.1-0.5,0.3-0.7c0.4-0.4,1-0.4,1.4,0c0.2,0.2,0.3,0.4,0.3,0.7C33,47.3,32.9,47.5,32.7,47.7z M38,48h-1c-0.6,0-1-0.4-1-1
		s0.4-1,1-1h1c0.6,0,1,0.4,1,1S38.6,48,38,48z M27,42h11c0.6,0,1,0.4,1,1s-0.4,1-1,1H27c-0.6,0-1-0.4-1-1S26.4,42,27,42z M21.3,42.3
		c0.4-0.4,1-0.4,1.4,0c0.2,0.2,0.3,0.4,0.3,0.7c0,0.3-0.1,0.5-0.3,0.7C22.5,43.9,22.3,44,22,44c-0.3,0-0.5-0.1-0.7-0.3
		C21.1,43.5,21,43.3,21,43C21,42.7,21.1,42.5,21.3,42.3z M22,46h5c0.6,0,1,0.4,1,1s-0.4,1-1,1h-5c-0.6,0-1-0.4-1-1S21.4,46,22,46z"
		/>
	<rect x="20" y="25" class="st0" width="20" height="6"/>
	<path class="st0" d="M3,60h54V18H3V60z M18,23h24v10H18V23z M15,38h30v14H15V38z"/>
</g>
</svg>
