<?xml version="1.0" encoding="utf-8"?>
<!-- Generator: Adobe Illustrator 19.2.0, SVG Export Plug-In . SVG Version: 6.00 Build 0)  -->
<svg version="1.1" id="Layer_1" xmlns="http://www.w3.org/2000/svg" xmlns:xlink="http://www.w3.org/1999/xlink" x="0px" y="0px"
	 viewBox="0 0 198.1 198.1" style="enable-background:new 0 0 198.1 198.1;" xml:space="preserve">
<style type="text/css">
	.st0{fill:#3498DB;}
</style>
<g>
	<g>
		<g>
			<path class="st0" d="M197.3,112.6l-16-31.8c-0.9-1.7-3-2.4-4.7-1.5c-1.7,0.9-2.4,3-1.5,4.7l13.8,27.3h-32.4V13.9
				c0-1.9-1.6-3.5-3.5-3.5H69.5c-1.9,0-3.5,1.6-3.5,3.5s1.6,3.5,3.5,3.5h79.9v93.8h-3.5V24.3c0-1.9-1.6-3.5-3.5-3.5H59.1
				c-1.9,0-3.5,1.6-3.5,3.5s1.6,3.5,3.5,3.5H139v83.4h-3.5V34.7c0-1.9-1.6-3.5-3.5-3.5H48.6c-1.9,0-3.5,1.6-3.5,3.5s1.6,3.5,3.5,3.5
				h79.9v73h-3.5v-66c0-1.9-1.6-3.5-3.5-3.5H38.2c-1.9,0-3.5,1.6-3.5,3.5v66H8.9l13.8-27.3c0.9-1.7,0.2-3.8-1.5-4.7
				c-1.7-0.9-3.8-0.2-4.7,1.5L0.4,112.7c-0.3,0.5-0.3,1.1-0.3,1.7c0,0.1-0.1,0.2-0.1,0.3v69.5c0,1.9,1.6,3.5,3.5,3.5h191.1
				c1.9,0,3.5-1.6,3.5-3.5v-69.5C198.1,113.9,197.7,113.2,197.3,112.6z M41.7,48.6h76.4v62.5H41.7V48.6z M191.1,180.7H6.9v-62.5
				h31.3h83.4h69.5L191.1,180.7L191.1,180.7z"/>
			<rect x="69.5" y="128.6" class="st0" width="59.1" height="6.9"/>
		</g>
	</g>
</g>
</svg>
