<?xml version="1.0" encoding="utf-8"?>
<!-- Generator: Adobe Illustrator 19.2.0, SVG Export Plug-In . SVG Version: 6.00 Build 0)  -->
<svg version="1.1" id="Layer_1" xmlns="http://www.w3.org/2000/svg" xmlns:xlink="http://www.w3.org/1999/xlink" x="0px" y="0px"
	 viewBox="0 0 280 280" style="enable-background:new 0 0 280 280;" xml:space="preserve">
<style type="text/css">
	.st0{fill:#FFFFFF;}
</style>
<g>
	<path class="st0" d="M189,47V16h-25.5C160,6,150.9,0,140.3,0s-19.6,6-23.2,16H90v31H189z"/>
	<path class="st0" d="M206,16v31.1v14.2V64H74v-0.8V47.1V16H41v264h198V16H206z M140,245H74v-16h66V245z M140,179H74v-16h66V179z
		 M140,113H74V97h66V113z M178.6,259.3l-16.7-16.7l11.3-11.3l5.3,5.3l16.3-16.3l11.3,11.3L178.6,259.3z M178.6,193.3l-16.7-16.7
		l11.3-11.3l5.3,5.3l16.3-16.3l11.3,11.3L178.6,193.3z M178.6,127.3l-16.7-16.7l11.3-11.3l5.3,5.3l16.3-16.3l11.3,11.3L178.6,127.3z
		"/>
</g>
</svg>
