<?xml version="1.0" encoding="utf-8"?>
<!-- Generator: Adobe Illustrator 19.2.0, SVG Export Plug-In . SVG Version: 6.00 Build 0)  -->
<svg version="1.1" id="Layer_1" xmlns="http://www.w3.org/2000/svg" xmlns:xlink="http://www.w3.org/1999/xlink" x="0px" y="0px"
	 viewBox="0 0 512 512" style="enable-background:new 0 0 512 512;" xml:space="preserve">
<style type="text/css">
	.st0{fill:#3498DB;}
</style>
<g>
	<g>
		<path class="st0" d="M497,217.7c-9.4-5.6-20.7-5.8-30.4-0.7c-1,0.5-1.9,1.1-2.8,1.6c-21.3-32.6-50.2-60-84-79.5
			c-37.5-21.6-80.3-33.1-123.8-33.1c-43.5,0-86.3,11.4-123.8,33.1c-33.8,19.5-62.7,46.9-84,79.5c-0.9-0.5-1.8-1.1-2.8-1.6
			c-9.6-5.2-21-5-30.4,0.6c-9.4,5.6-15,15.5-15,26.4v0.9c0,9.7,4.8,18.8,12.7,24.5l28.7,113.8c3.4,13.3,15.3,22.6,29,22.6h371.2
			c13.7,0,25.6-9.3,29-22.6l28.7-113.8c7.9-5.7,12.7-14.8,12.7-24.5v-0.9C512,233.2,506.4,223.3,497,217.7z M140.7,154
			c34.9-20.1,74.7-30.8,115.3-30.8c40.5,0,80.4,10.6,115.3,30.8c31.5,18.2,58.4,43.7,78.3,74.2c-2.5,1.4-4.3,1.8-8,1.8
			c-5.7,0-7-0.9-13.1-5.2c-9.3-6.6-23.5-16.5-48.7-16.5c-25.3,0-39.4,9.9-48.7,16.5c-6.2,4.3-7.5,5.2-13.1,5.2
			c-5.7,0-7-0.9-13.1-5.2c-9.3-6.6-23.5-16.5-48.7-16.5s-39.4,9.9-48.7,16.5c-6.2,4.3-7.5,5.2-13.1,5.2s-7-0.9-13.1-5.2
			c-9.3-6.6-23.5-16.5-48.7-16.5c-25.3,0-39.4,9.9-48.7,16.5c-6.2,4.3-7.5,5.2-13.1,5.2c-3.6,0-5.5-0.4-8-1.8
			C82.3,197.7,109.2,172.1,140.7,154z M454,379.2c-1.4,5.7-6.5,9.6-12.4,9.6H70.4c-5.9,0-11-4-12.4-9.6L33.8,283
			c8.7,4.7,20.4,8.8,36.6,8.8c25.3,0,39.4-9.9,48.7-16.5c6.2-4.3,7.5-5.2,13.1-5.2c5.7,0,7,0.9,13.1,5.2
			c9.3,6.6,23.5,16.5,48.7,16.5c25.2,0,39.4-9.9,48.7-16.5c6.2-4.3,7.5-5.2,13.1-5.2c5.7,0,7,0.9,13.1,5.2
			c9.3,6.6,23.5,16.5,48.7,16.5c25.3,0,39.4-9.9,48.7-16.5c6.2-4.3,7.5-5.2,13.1-5.2c5.7,0,7,0.9,13.1,5.2
			c9.3,6.6,23.5,16.5,48.7,16.5c16.3,0,27.9-4.1,36.7-8.8L454,379.2z M494.9,245.1c0,4.7-2.7,9.2-7.2,11.6c-2.4,1.3-4.6,2.9-7.3,4.7
			c-8.5,6-19,13.4-38.9,13.4s-30.4-7.4-38.9-13.4c-7.2-5-11.9-8.3-23-8.3c-11.1,0-15.8,3.3-23,8.3c-8.5,6-19,13.4-38.9,13.4
			c-19.8,0-30.4-7.4-38.9-13.4c-7.2-5-11.9-8.3-23-8.3c-11.1,0-15.8,3.3-23,8.3c-8.5,6-19,13.4-38.9,13.4s-30.4-7.4-38.9-13.4
			c-7.2-5-11.9-8.3-23-8.3c-11.1,0-15.8,3.3-23,8.3c-8.5,6-19,13.4-38.9,13.4c-19.8,0-30.4-7.4-38.9-13.4c-2.6-1.8-4.9-3.4-7.3-4.7
			c-4.4-2.4-7.2-6.8-7.2-11.6v-0.9c0-4.9,2.5-9.2,6.7-11.7c4.2-2.5,9.2-2.6,13.5-0.3c3.9,2.1,7.1,4.4,10.2,6.6
			c7.2,5,11.9,8.3,23,8.3c11.1,0,15.8-3.3,23-8.3c8.5-6,19-13.4,38.9-13.4c19.8,0,30.4,7.4,38.9,13.4c7.2,5,11.9,8.3,23,8.3
			s15.8-3.3,23-8.3c8.5-6,19-13.4,38.9-13.4s30.4,7.4,38.9,13.4c7.2,5,11.9,8.3,23,8.3c11.1,0,15.8-3.3,23-8.3
			c8.5-6,19-13.4,38.9-13.4c19.9,0,30.4,7.4,38.9,13.4c7.2,5,11.9,8.3,23,8.3c11.1,0,15.8-3.3,23-8.3c3.1-2.2,6.3-4.5,10.2-6.5
			c4.3-2.3,9.3-2.2,13.5,0.3c4.2,2.5,6.7,6.9,6.7,11.7L494.9,245.1L494.9,245.1z"/>
	</g>
</g>
<g>
	<g>
		<path class="st0" d="M256,137.6c-4.7,0-8.5,3.8-8.5,8.5v19c0,4.7,3.8,8.5,8.5,8.5c4.7,0,8.5-3.8,8.5-8.5v-19
			C264.5,141.4,260.7,137.6,256,137.6z"/>
	</g>
</g>
<g>
	<g>
		<path class="st0" d="M327.2,155.6l-16.3-6.8c-4.4-1.8-9.4,0.2-11.2,4.6c-1.8,4.4,0.2,9.4,4.6,11.2l16.3,6.8
			c1.1,0.4,2.2,0.7,3.3,0.7c3.3,0,6.5-2,7.9-5.3C333.6,162.4,331.5,157.4,327.2,155.6z"/>
	</g>
</g>
<g>
	<g>
		<path class="st0" d="M212.3,153.4c-1.8-4.4-6.8-6.4-11.2-4.6l-16.3,6.8c-4.4,1.8-6.4,6.8-4.6,11.2c1.4,3.3,4.5,5.3,7.9,5.3
			c1.1,0,2.2-0.2,3.3-0.7l16.3-6.8C212,162.8,214.1,157.8,212.3,153.4z"/>
	</g>
</g>
</svg>
